<?xml version="1.0" standalone="no"?>
<!DOCTYPE svg PUBLIC "-//W3C//DTD SVG 20010904//EN"
 "http://www.w3.org/TR/2001/REC-SVG-20010904/DTD/svg10.dtd">
<svg version="1.0" xmlns="http://www.w3.org/2000/svg"
 width="1200.000000pt" height="628.000000pt" viewBox="0 0 1200.000000 628.000000"
 preserveAspectRatio="xMidYMid meet">

<g transform="translate(0.000000,628.000000) scale(0.100000,-0.100000)"
fill="#000000" stroke="none">
<path d="M11185 4879 c-22 -4 -71 -15 -110 -24 -38 -9 -88 -19 -110 -24 -22
-4 -58 -13 -80 -19 -22 -5 -74 -18 -115 -27 -41 -9 -91 -20 -110 -25 -59 -14
-133 -31 -180 -40 -25 -5 -74 -16 -110 -25 -36 -8 -90 -20 -120 -26 -30 -6
-64 -14 -75 -19 -18 -7 -77 -20 -180 -40 -41 -8 -117 -25 -170 -40 -16 -4 -66
-15 -110 -25 -74 -15 -106 -22 -240 -55 -27 -7 -70 -16 -95 -21 -25 -5 -74
-16 -110 -25 -36 -8 -79 -18 -97 -21 -36 -6 -56 -43 -42 -81 7 -19 15 -22 63
-22 30 0 58 5 61 10 3 6 20 10 37 10 17 0 54 6 82 14 63 18 138 36 191 47 22
4 72 15 110 24 39 9 94 21 124 26 30 5 59 13 65 16 6 4 31 11 56 15 25 4 74
14 110 23 36 9 85 20 110 25 25 5 61 14 80 19 19 5 71 17 115 26 44 9 95 21
112 26 18 6 54 14 80 19 27 5 77 16 113 25 36 8 85 19 110 24 54 10 133 29
177 42 18 6 54 14 80 19 27 5 80 16 118 25 39 9 89 19 112 24 54 10 73 26 73
62 0 46 -35 57 -125 38z"/>
<path d="M11590 4174 c-98 -54 -157 -156 -147 -252 11 -96 18 -113 76 -171 47
-47 66 -59 121 -74 60 -16 70 -16 122 -2 137 36 208 125 208 260 0 156 -112
266 -269 265 -51 -1 -76 -6 -111 -26z m226 -40 c81 -52 114 -110 114 -198 0
-100 -37 -158 -137 -213 -31 -17 -133 -16 -174 1 -42 18 -100 79 -122 128 -24
51 -22 128 4 178 25 48 97 112 137 122 47 12 147 2 178 -18z"/>
<path d="M11600 3935 l0 -135 25 0 c26 0 26 1 29 70 1 23 5 25 51 25 46 0 50
-2 53 -25 7 -60 12 -70 38 -70 26 0 26 1 20 53 -9 63 -9 81 0 129 5 31 2 41
-20 62 -23 24 -32 26 -111 26 l-85 0 0 -135z m144 79 c26 -10 20 -53 -8 -60
-35 -8 -67 -1 -79 18 -22 34 36 62 87 42z"/>
<path d="M0 3476 l0 -703 92 -7 c50 -3 570 -6 1155 -6 962 0 1066 2 1088 16
34 22 34 66 0 88 -22 14 -128 16 -1114 16 -933 0 -1091 2 -1098 14 -4 8 -7
127 -5 265 l3 251 1097 0 c1218 0 1142 -4 1142 64 0 22 -6 36 -16 40 -9 3
-505 6 -1103 6 -854 0 -1091 3 -1104 13 -16 11 -17 36 -15 272 l3 260 1099 3
c1006 2 1101 3 1118 19 24 22 24 69 -1 83 -13 7 -399 10 -1180 10 l-1161 0 0
-704z"/>
<path d="M2847 4174 c-4 -4 -7 -315 -7 -690 l0 -683 26 -20 c21 -17 30 -19 48
-9 11 6 24 16 28 22 4 6 8 144 8 307 0 216 3 298 12 307 19 19 61 14 145 -18
42 -16 85 -30 93 -30 9 0 25 -7 36 -15 10 -8 27 -15 36 -15 10 0 34 -7 55 -16
53 -23 75 -32 98 -37 11 -3 45 -15 75 -27 30 -12 64 -24 75 -27 11 -3 34 -11
52 -19 17 -8 36 -14 42 -14 6 0 19 -4 29 -9 9 -6 46 -20 82 -32 156 -53 221
-77 227 -83 3 -3 13 -6 21 -6 8 0 28 -6 45 -14 18 -8 41 -16 52 -19 11 -3 38
-12 60 -21 150 -56 214 -79 240 -85 17 -5 41 -13 55 -19 14 -6 34 -14 45 -18
132 -48 183 -66 200 -71 11 -3 34 -11 52 -19 17 -8 38 -14 46 -14 9 0 19 -4
22 -10 3 -5 13 -10 22 -10 8 0 29 -6 46 -14 18 -8 41 -16 52 -19 11 -3 51 -17
89 -31 38 -14 70 -26 72 -26 2 0 12 10 24 22 23 25 25 47 8 71 -11 15 -197 86
-308 119 -19 5 -39 14 -45 18 -5 4 -21 10 -35 13 -14 3 -50 15 -80 27 -30 12
-66 25 -80 30 -14 4 -63 22 -110 40 -47 17 -94 34 -105 37 -11 3 -34 11 -52
19 -17 8 -38 14 -46 14 -9 0 -19 5 -22 10 -3 6 -13 10 -22 10 -8 0 -29 6 -46
14 -18 8 -41 16 -52 19 -26 7 -82 27 -122 44 -17 7 -38 13 -46 13 -9 0 -19 5
-22 10 -3 6 -13 10 -22 10 -8 0 -29 6 -46 14 -18 8 -41 16 -52 19 -11 3 -38
12 -60 21 -156 58 -268 97 -354 122 -11 3 -11 7 -1 19 11 13 102 15 691 15
800 0 777 -3 895 104 122 109 157 303 82 449 -31 62 -113 142 -176 174 l-57
28 -1005 3 c-553 1 -1009 0 -1013 -4z m2020 -125 c54 -26 116 -87 140 -136 13
-27 18 -61 17 -118 0 -74 -3 -84 -36 -136 -23 -36 -54 -67 -89 -90 l-54 -34
-941 -3 -942 -3 -6 23 c-8 31 -8 503 1 511 3 4 425 7 937 7 924 0 930 0 973
-21z"/>
<path d="M5620 4160 c-20 -20 -20 -31 -18 -691 l3 -672 27 -20 c25 -19 28 -19
52 -3 l26 16 2 671 c2 392 -1 677 -6 687 -20 37 -56 42 -86 12z"/>
<path d="M6156 4158 c-3 -13 -6 -325 -6 -695 0 -597 2 -673 16 -687 14 -14
117 -16 982 -16 983 0 1093 4 1169 38 105 47 185 143 216 258 22 78 21 115 -3
192 -29 93 -40 110 -107 176 -24 23 -43 45 -43 49 0 4 24 31 53 60 55 56 75
90 101 176 20 68 20 109 -1 185 -31 112 -94 189 -210 254 l-48 27 -1056 3
-1056 3 -7 -23z m2114 -108 c90 -46 140 -110 161 -203 10 -46 10 -65 0 -100
-27 -89 -73 -150 -145 -190 l-41 -22 -978 -5 c-611 -3 -982 -1 -988 4 -5 6 -9
120 -9 273 l0 263 980 0 c962 0 982 0 1020 -20z m35 -675 c72 -49 107 -98 124
-176 11 -48 11 -68 1 -107 -23 -87 -81 -158 -157 -193 -41 -18 -73 -19 -1020
-17 l-978 3 -3 259 c-2 201 1 261 10 268 7 4 452 7 988 6 l975 -3 60 -40z"/>
<path d="M8965 4168 c-3 -7 -4 -326 -3 -708 l3 -695 1151 0 c1119 0 1153 1
1173 19 28 26 26 50 -5 75 -27 21 -29 21 -1120 21 l-1094 0 0 265 0 265 1094
0 c1091 0 1093 0 1120 21 29 23 33 50 10 73 -14 14 -129 16 -1114 16 -992 0
-1098 2 -1104 16 -3 9 -6 132 -6 275 l0 259 1104 0 1104 0 16 25 c21 32 20 41
-4 65 -20 20 -33 20 -1170 20 -911 0 -1152 -3 -1155 -12z"/>
<path d="M225 1790 c-3 -5 -1 -10 4 -10 6 0 11 5 11 10 0 6 -2 10 -4 10 -3 0
-8 -4 -11 -10z"/>
<path d="M8276 1763 c-6 -14 -5 -15 5 -6 7 7 10 15 7 18 -3 3 -9 -2 -12 -12z"/>
<path d="M511 1694 c0 -11 3 -14 6 -6 3 7 2 16 -1 19 -3 4 -6 -2 -5 -13z"/>
<path d="M7870 1690 c0 -6 7 -10 15 -10 8 0 15 2 15 4 0 2 -7 6 -15 10 -8 3
-15 1 -15 -4z"/>
<path d="M511 1644 c0 -11 3 -14 6 -6 3 7 2 16 -1 19 -3 4 -6 -2 -5 -13z"/>
<path d="M10656 1465 c4 -8 8 -15 10 -15 2 0 4 7 4 15 0 8 -4 15 -10 15 -5 0
-7 -7 -4 -15z"/>
</g>
</svg>
